<?xml version="1.0" encoding="UTF-8"?>
<svg width="28px" height="30px" viewBox="0 0 28 30" version="1.1" xmlns="http://www.w3.org/2000/svg" xmlns:xlink="http://www.w3.org/1999/xlink">
    <!-- Generator: Sketch 58 (84663) - https://sketch.com -->
    <title>ion-settings-outline</title>
    <desc>Created with Sketch.</desc>
    <g id="Page-1" stroke="none" stroke-width="1" fill="none" fill-rule="evenodd">
        <g id="Desktop-HD" transform="translate(-26.000000, -652.000000)">
            <g id="icons" transform="translate(24.000000, 342.000000)">
                <g id="ion-settings-outline" transform="translate(0.000000, 309.000000)">
                    <g id="Icon" transform="translate(2.000000, 2.000000)" stroke="#EFEFEF" stroke-linecap="round" stroke-linejoin="round" stroke-width="2">
                        <path d="M14.393125,10.019375 C12.7115177,9.85329674 11.1069449,10.7618507 10.3842629,12.2893046 C9.6615808,13.8167586 9.97670316,15.6335751 11.171564,16.828436 C12.3664249,18.0232968 14.1832414,18.3384192 15.7106954,17.6157371 C17.2381493,16.8930551 18.1467033,15.2884823 17.980625,13.606875 C17.7901093,11.7100582 16.2899418,10.2098907 14.393125,10.019375 L14.393125,10.019375 Z M24.024375,14 C24.0218203,14.4347851 23.9898724,14.8689001 23.92875,15.299375 L26.754375,17.515625 C27.0084555,17.7262381 27.0731982,18.0895899 26.9075,18.375 L24.234375,23 C24.0667871,23.282583 23.7202134,23.4036465 23.413125,23.286875 L20.606875,22.156875 C20.2925305,22.0317162 19.9363407,22.072806 19.65875,22.26625 C19.2304685,22.5611734 18.7804268,22.8231754 18.3125,23.05 C18.0137496,23.1952028 17.8070191,23.4797502 17.76125,23.80875 L17.340625,26.801875 C17.2836516,27.1278696 17.0039866,27.367994 16.673125,27.375 L11.326875,27.375 C11.0018583,27.3693769 10.7242411,27.1390248 10.65875,26.820625 L10.23875,23.831875 C10.1908468,23.4992125 9.97972667,23.2125582 9.67625,23.068125 C9.208883,22.8425276 8.7603618,22.5798104 8.335,22.2825 C8.05833416,22.0900032 7.70331247,22.0498254 7.390625,22.175625 L4.585,23.305 C4.27806257,23.4218825 3.93153386,23.3010985 3.76375,23.01875 L1.090625,18.39375 C0.924655417,18.1083879 0.989431378,17.7448494 1.24375,17.534375 L3.631875,15.659375 C3.89769157,15.4483655 4.03878848,15.1172581 4.006875,14.779375 C3.984375,14.51875 3.970625,14.25875 3.970625,13.998125 C3.970625,13.7375 3.98375,13.48125 4.006875,13.22625 C4.03529518,12.8904621 3.89268099,12.5629429 3.6275,12.355 L1.240625,10.48 C0.990570439,10.2685582 0.928146224,9.90823619 1.0925,9.625 L3.765625,5 C3.93321285,4.71741697 4.2797866,4.59635353 4.586875,4.713125 L7.393125,5.843125 C7.70746952,5.96828377 8.06365926,5.92719399 8.34125,5.73375 C8.76953147,5.43882659 9.21957324,5.17682455 9.6875,4.95 C9.98625038,4.80479715 10.1929809,4.52024976 10.23875,4.19125 L10.659375,1.198125 C10.7163484,0.872130382 10.9960134,0.632006021 11.326875,0.625 L16.673125,0.625 C16.9981417,0.630623097 17.2757589,0.860975231 17.34125,1.179375 L17.76125,4.168125 C17.8091532,4.50078749 18.0202733,4.78744177 18.32375,4.931875 C18.791117,5.15747243 19.2396382,5.42018964 19.665,5.7175 C19.9416658,5.90999679 20.2966875,5.95017462 20.609375,5.824375 L23.415,4.695 C23.7219374,4.57811752 24.0684661,4.6989015 24.23625,4.98125 L26.909375,9.60625 C27.0753446,9.89161208 27.0105686,10.2551506 26.75625,10.465625 L24.368125,12.340625 C24.1011399,12.550957 23.9588196,12.882175 23.99,13.220625 C24.010625,13.479375 24.024375,13.739375 24.024375,14 L24.024375,14 Z" id="Icon-Shape"></path>
                    </g>
                    <rect id="ViewBox" fill-rule="nonzero" x="0" y="0" width="32" height="32"></rect>
                </g>
            </g>
        </g>
    </g>
</svg>